<svg enable-background="new 0 0 317 154.9" height="220.970869" viewBox="0 0 317 154.9" width="452.54834" xmlns="http://www.w3.org/2000/svg"><path d="m207 39.8c-.1 2.3-.4 4.5-.9 6.6-8.6 2.4-16.6 5.5-23.8 9.5-4.9 2.7-9.4 5.8-13.5 9.4 3.3-2.5 6.8-4.8 10.5-6.9 8-4.4 16.9-7.8 26.3-10.4-.6 2.4-1.4 4.8-2.3 7.1-7.6 2.3-14.7 5.1-21.1 8.7-7.9 4.4-14.9 9.9-20.6 16.8l-.3.4c-.2.2-.4.4-.5.7l-2.4 3-2.4-3c-.1-.2-.3-.4-.4-.5l-.5-.6c-.1-.1-.2-.3-.3-.4-5.6-6.7-12.5-12.1-20.2-16.3-6.4-3.6-13.5-6.4-21.1-8.7-.9-2.3-1.7-4.6-2.3-7.1 9.5 2.6 18.3 6 26.3 10.4 3.7 2 7.2 4.3 10.5 6.9-4.1-3.6-8.6-6.7-13.5-9.4-7.2-4-15.2-7-23.8-9.5-.4-2.2-.7-4.4-.9-6.6 9.9 2.6 19.2 6.1 27.6 10.7 7.9 4.4 15 9.8 20.9 16.6 5.9-6.7 13-12.2 20.9-16.6 8.6-4.7 17.9-8.2 27.8-10.8m-93.5-21.4c8.6 2.5 16.7 5.7 24.1 9.8 7.9 4.4 15 9.8 20.9 16.6 5.9-6.7 13-12.2 20.9-16.6 7.4-4.1 15.5-7.3 24.1-9.8.8 1.9 1.4 3.8 2 5.9-8.3 2.4-16.1 5.4-23.1 9.3-5.8 3.2-11.2 7.1-15.8 11.6 4-3.3 8.3-6.2 12.9-8.7 8.1-4.5 17-7.8 26.5-10.4.4 2 .8 4 1 6.1-8.9 2.5-17.1 5.6-24.5 9.7-7.9 4.4-14.9 9.9-20.6 16.8l-.3.4c-.2.2-.4.4-.5.7l-2.4 3-2.4-3c-.1-.2-.3-.4-.4-.5l-.5-.6c-.1-.1-.2-.3-.3-.4-5.6-6.7-12.5-12.1-20.2-16.3-7.4-4.1-15.6-7.2-24.5-9.7.2-2.1.5-4.1 1-6.1 9.5 2.6 18.4 6 26.5 10.4 4.6 2.5 8.9 5.4 12.9 8.7-4.7-4.6-10-8.4-15.8-11.6-7-3.9-14.8-6.9-23.1-9.3.1-2.2.8-4.1 1.6-6z" fill="#722e85"/><path clip-rule="evenodd" d="m158.5 0c12.4 0 22.6 9.5 23.7 21.7-.9.5-1.9 1-2.8 1.5-7.9 4.4-15 9.8-20.9 16.6-5.9-6.7-13-12.2-20.9-16.6-.9-.5-1.8-1-2.8-1.5 1.1-12.2 11.3-21.7 23.7-21.7" fill="#fab605" fill-rule="evenodd"/><g fill="#722e85"><path d="m302.7 109.1h5.5l-2.7-9.3h-.1zm6.8 4.7h-8.2l-1.5 5h-6l8.3-25.9h6.5l8.4 25.9h-6zm-17.7 5h-6l-9.5-16.5h-.1v16.5h-6v-25.9h6l9.5 16.5h.1v-16.5h6zm-25.2 0h-6v-10.4h-9.6v10.4h-6v-25.9h6v10.8h9.6v-10.8h6zm-30.4-6.9c0-.9-.3-1.6-.9-2.1s-1.7-1-3.3-1.6c-3.3-1-5.7-2.1-7.3-3.3s-2.4-2.9-2.4-5.1.9-3.9 2.8-5.3c1.9-1.3 4.3-2 7.2-2s5.2.7 7 2.2 2.7 3.4 2.7 5.7v.1h-5.8c0-1-.4-1.9-1-2.5-.7-.6-1.7-1-2.9-1s-2.2.3-2.8.8c-.7.5-1 1.2-1 2s.3 1.4 1 1.8c.7.5 2 1 3.9 1.7 2.9.9 5.2 2 6.6 3.2 1.5 1.3 2.2 3 2.2 5.3s-.9 4.1-2.7 5.3c-1.8 1.3-4.1 1.9-7.1 1.9-2.9 0-5.5-.7-7.6-2.2s-3.2-3.6-3.1-6.4v-.1h5.8c0 1.5.4 2.5 1.2 3.2.8.6 2 1 3.7 1 1.2 0 2.2-.2 2.8-.7.7-.4 1-1.1 1-1.9zm-17.8 6.9h-6v-25.9h6zm-23.9-14.5h4c1.2 0 2.1-.3 2.8-.8.6-.6 1-1.3 1-2.4s-.3-1.9-1-2.6c-.7-.6-1.6-1-2.8-1h-3.9v6.8zm0 4.6v9.9h-6v-25.9h10c3 0 5.4.7 7.1 2.1 1.8 1.4 2.6 3.3 2.6 5.7 0 1.3-.4 2.5-1.1 3.5s-1.7 1.7-3.1 2.3c1.6.4 2.7 1.2 3.4 2.2s1 2.4 1 3.9v1.6c0 .7.1 1.4.3 2.3s.6 1.5 1 1.8v.4h-6.2c-.5-.4-.8-1-.9-2-.1-.9-.2-1.8-.2-2.6v-1.6c0-1.2-.3-2.2-1-2.8-.6-.6-1.6-1-2.9-1h-4zm-20.3-.5h-2.8v10.4h-6v-25.9h6v10.1h2l5.7-10.1h7.5l-8 11.7 8.7 14.2h-7.3zm-24.6.7h5.5l-2.7-9.3h-.1zm6.9 4.7h-8.2l-1.5 5h-6l8.3-25.9h6.5l8.4 25.9h-6zm-37.4-20.9 5.8 18.1h.1l5.9-18.1h7.9v25.9h-6v-6.4l.6-11.8h-.1l-6.2 18.3h-4.1l-6.2-18.1h-.1l.6 11.7v6.4h-6v-26zm-23.6 16.2h5.5l-2.7-9.3h-.1zm6.8 4.7h-8.2l-1.5 5h-6l8.4-25.9h6.5l8.4 25.9h-6zm-31.3-9.5h4c1.2 0 2.1-.3 2.8-.8.6-.6 1-1.3 1-2.4s-.3-1.9-1-2.6c-.7-.6-1.6-1-2.8-1h-4zm0 4.6v9.9h-6v-25.9h10c3 0 5.4.7 7.1 2.1 1.8 1.4 2.6 3.3 2.6 5.7 0 1.3-.4 2.5-1.1 3.5s-1.7 1.7-3.1 2.3c1.6.4 2.7 1.2 3.4 2.2s1 2.4 1 3.9v1.6c0 .7.1 1.4.3 2.3s.6 1.5 1 1.8v.4h-6.2c-.5-.4-.8-1-.9-2-.1-.9-.2-1.8-.2-2.6v-1.6c0-1.2-.3-2.2-1-2.8-.6-.6-1.6-1-2.9-1h-4zm-17.8 9.9h-6v-25.9h6zm-23.9-14.5h4c1.2 0 2.1-.3 2.8-.8.6-.6 1-1.3 1-2.4s-.3-1.9-1-2.6c-.7-.6-1.6-1-2.8-1h-3.9v6.8zm0 4.6v9.9h-6v-25.9h10c3 0 5.4.7 7.1 2.1 1.8 1.4 2.6 3.3 2.6 5.7 0 1.3-.4 2.5-1.1 3.5s-1.7 1.7-3.1 2.3c1.6.4 2.7 1.2 3.4 2.2s1 2.4 1 3.9v1.6c0 .7.1 1.4.3 2.3s.6 1.5 1 1.8v.4h-6.2c-.5-.4-.8-1-.9-2-.1-.9-.2-1.8-.2-2.6v-1.6c0-1.2-.3-2.2-1-2.8-.6-.6-1.6-1-2.9-1h-4zm-14.8 3c0-.9-.3-1.6-.9-2.1s-1.7-1-3.3-1.6c-3.3-1-5.7-2.1-7.3-3.3s-2.4-2.9-2.4-5.1.9-3.9 2.8-5.3c1.9-1.3 4.3-2 7.2-2s5.2.7 7 2.2 2.7 3.4 2.7 5.7v.1h-5.8c0-1-.4-1.9-1-2.5-.7-.6-1.7-1-2.9-1s-2.2.3-2.8.8c-.7.5-1 1.2-1 2s.3 1.4 1 1.8c.7.5 2 1 3.9 1.7 2.9.9 5.2 2 6.6 3.2 1.5 1.3 2.2 3 2.2 5.3s-.9 4.1-2.7 5.3c-1.8 1.3-4.1 1.9-7.1 1.9-2.9 0-5.5-.7-7.6-2.2s-3.2-3.6-3.1-6.4v-.1h5.8c0 1.5.4 2.5 1.2 3.2.8.6 2 1 3.7 1 1.2 0 2.2-.2 2.8-.7.6-.4 1-1.1 1-1.9z"/><path d="m268.9 134h-4.7v3.6h5.5v1.9h-8.1v-12.5h8v1.9h-5.5v3.2h4.7v1.9zm-8.3 1.4c0 1.4-.4 2.4-1.2 3.2s-2 1.1-3.5 1.1-2.7-.5-3.6-1.5-1.4-2.2-1.4-3.8v-2.4c0-1.5.5-2.8 1.4-3.8s2.1-1.5 3.6-1.5 2.7.4 3.6 1.1 1.3 1.8 1.3 3.2v.1h-2.4c0-.8-.2-1.4-.6-1.8s-1-.6-1.8-.6-1.3.3-1.8.9c-.4.6-.6 1.4-.6 2.3v2.5c0 1 .2 1.8.7 2.4.4.6 1.1.9 1.9.9s1.3-.2 1.7-.6.6-1 .6-1.8h2.1zm-10.9 4.2h-2.5l-5.1-8.5h-.1v8.5h-2.5v-12.6h2.5l5.1 8.5h.1v-8.5h2.5zm-12.1-5.6h-4.6v3.6h5.5v1.9h-8.1v-12.5h8v1.9h-5.4v3.2h4.7v1.9zm-8.9 5.6h-2.5v-12.6h2.5zm-3.7-4.2c0 1.4-.4 2.4-1.2 3.2s-2 1.1-3.5 1.1-2.7-.5-3.6-1.5-1.4-2.2-1.4-3.8v-2.4c0-1.5.5-2.8 1.4-3.8s2.1-1.5 3.6-1.5 2.7.4 3.6 1.1 1.3 1.8 1.3 3.2v.1h-2.4c0-.8-.2-1.4-.6-1.8s-1-.6-1.8-.6-1.3.3-1.8.9c-.4.6-.6 1.4-.6 2.3v2.5c0 1 .2 1.8.7 2.4.4.6 1.1.9 1.9.9s1.3-.2 1.7-.6.6-1 .6-1.8h2.1zm-13 .9c0-.5-.2-.9-.5-1.2s-.9-.6-1.8-.8c-1.4-.4-2.5-1-3.3-1.5-.8-.6-1.1-1.4-1.1-2.4s.4-1.9 1.3-2.5c.8-.7 1.9-1 3.2-1 1.4 0 2.5.4 3.4 1.1.8.7 1.3 1.6 1.2 2.8v.1h-2.4c0-.6-.2-1.1-.6-1.4s-.9-.5-1.6-.5c-.6 0-1.1.2-1.4.5s-.5.7-.5 1.1.2.8.6 1c.4.3 1 .6 1.9.9 1.4.4 2.4.9 3.2 1.5.7.6 1.1 1.5 1.1 2.5 0 1.1-.4 1.9-1.3 2.5-.8.6-1.9.9-3.3.9s-2.5-.3-3.5-1-1.4-1.7-1.4-3h2.4c0 .7.2 1.3.7 1.6.4.3 1 .5 1.8.5.7 0 1.2-.1 1.5-.4.2-.5.4-.8.4-1.3zm-19.1-6.2c0 .2.1.5.2.7.1.3.3.5.5.8l.7-.4c.3-.2.5-.4.7-.6.1-.2.2-.5.2-.7 0-.3-.1-.6-.3-.8s-.5-.3-.8-.3-.6.1-.8.4c-.3.2-.4.5-.4.9zm.9 7.7c.3 0 .6 0 .9-.1s.6-.2.9-.3l-2.5-2.9-.1.1c-.3.3-.6.5-.7.8s-.2.5-.2.8c0 .5.2.9.5 1.3.3.1.7.3 1.2.3zm-2-5c-.4-.5-.7-1-.8-1.4-.2-.4-.3-.9-.3-1.3 0-1 .3-1.9.9-2.4.6-.6 1.4-.9 2.5-.9.9 0 1.7.3 2.2.8.6.6.9 1.3.9 2.1 0 .6-.1 1.1-.4 1.5-.2.4-.6.8-1.1 1.2l-.9.6 2.3 2.7c.2-.3.4-.7.5-1.1s.2-.8.2-1.3h2c0 .8-.1 1.6-.3 2.2-.2.7-.5 1.3-1 1.8l1.7 2h-2.8l-.7-.8c-.5.3-1 .6-1.5.7-.5.2-1.1.2-1.7.2-1.3 0-2.2-.3-3-1-.7-.7-1.1-1.5-1.1-2.6 0-.7.2-1.3.5-1.8.6-.1 1.1-.6 1.9-1.2zm-9.6 3.5c0-.5-.2-.9-.5-1.2s-.9-.6-1.8-.8c-1.4-.4-2.5-1-3.3-1.5-.8-.6-1.1-1.4-1.1-2.4s.4-1.9 1.3-2.5c.8-.7 1.9-1 3.2-1 1.4 0 2.5.4 3.4 1.1.8.7 1.3 1.6 1.2 2.8v.1h-2.4c0-.6-.2-1.1-.6-1.4s-.9-.5-1.6-.5c-.6 0-1.1.2-1.4.5s-.5.7-.5 1.1.2.8.6 1c.4.3 1 .6 1.9.9 1.4.4 2.4.9 3.2 1.5.7.6 1.1 1.5 1.1 2.5 0 1.1-.4 1.9-1.3 2.5-.8.6-1.9.9-3.3.9s-2.5-.3-3.5-1-1.4-1.7-1.4-3h2.4c0 .7.2 1.3.7 1.6.4.3 1 .5 1.8.5.7 0 1.2-.1 1.5-.4.2-.5.4-.8.4-1.3zm-7-7.3h-3.6v10.6h-2.6v-10.6h-3.5v-2h9.6v2zm-16.3 3.6h1.8c.7 0 1.2-.2 1.6-.5.3-.3.5-.7.5-1.3s-.2-1-.5-1.4c-.3-.3-.9-.5-1.5-.5h-1.8v3.7zm0 1.9v5h-2.5v-12.5h4.3c1.4 0 2.6.3 3.4 1s1.2 1.6 1.2 2.7c0 .6-.2 1.2-.5 1.7s-.8.8-1.5 1.1c.7.2 1.3.6 1.6 1.1s.5 1.1.5 1.9v.9c0 .3 0 .7.1 1.1s.3.7.5.8v.2h-2.6c-.2-.2-.4-.5-.4-.9-.1-.4-.1-.8-.1-1.2v-.9c0-.6-.2-1.1-.5-1.5-.3-.3-.8-.5-1.5-.5zm-9.9.4h2.8l-1.4-4.4h-.1zm3.4 2h-4.1l-.8 2.7h-2.6l4.2-12.6h2.6l4.2 12.6h-2.6zm-12.6-2.6h-4.8v5.2h-2.5v-12.5h8.2v1.9h-5.7v3.5h4.8zm-11.1-2.2c0-1-.2-1.8-.7-2.4s-1.2-.9-2-.9c-.9 0-1.5.3-2 .9s-.7 1.4-.7 2.4v2.3c0 1 .2 1.8.7 2.4s1.1.9 2 .9 1.5-.3 2-.9.7-1.4.7-2.4zm2.5 2.3c0 1.5-.5 2.8-1.5 3.8s-2.2 1.5-3.8 1.5-2.8-.5-3.8-1.5-1.4-2.3-1.4-3.8v-2.3c0-1.5.5-2.8 1.4-3.8 1-1 2.2-1.5 3.8-1.5s2.8.5 3.8 1.5 1.5 2.3 1.5 3.8zm-16.4-.4h-4.7v3.6h5.5v1.9h-8.1v-12.5h8v1.9h-5.5v3.2h4.7v1.9zm-8.6 3.8c-.4.5-1 1-1.8 1.3-.8.4-1.8.6-3 .6-1.5 0-2.8-.5-3.7-1.4-1-1-1.4-2.2-1.4-3.7v-2.6c0-1.5.5-2.8 1.4-3.7.9-1 2.1-1.4 3.6-1.4s2.7.4 3.5 1.1 1.2 1.7 1.2 2.9v.1h-2.4c0-.7-.2-1.2-.6-1.6s-.9-.6-1.7-.6-1.4.3-1.9.9-.7 1.4-.7 2.3v2.6c0 1 .2 1.7.7 2.3s1.1.9 1.9.9c.6 0 1.1-.1 1.4-.2s.6-.3.8-.5v-2.4h-2.4v-1.7h4.9v4.8zm-11.5-3.8h-4.7v3.6h5.5v1.9h-8.1v-12.5h8v1.9h-5.4v3.2h4.7zm-13.7 3.6h5.6v1.9h-8.1v-12.5h2.5zm-9.1 0h5.6v1.9h-8.1v-12.5h2.5zm-6.2-5.5c0-1-.2-1.8-.7-2.4s-1.2-.9-2-.9c-.9 0-1.5.3-2 .9s-.7 1.4-.7 2.4v2.3c0 1 .2 1.8.7 2.4s1.1.9 2 .9 1.5-.3 2-.9.7-1.4.7-2.4zm2.5 2.3c0 1.5-.5 2.8-1.5 3.8s-2.2 1.5-3.8 1.5-2.8-.5-3.8-1.5-1.4-2.3-1.4-3.8v-2.3c0-1.5.5-2.8 1.4-3.8 1-1 2.2-1.5 3.8-1.5s2.8.5 3.8 1.5 1.5 2.3 1.5 3.8zm-11.2 1c0 1.4-.4 2.4-1.2 3.2s-2 1.1-3.5 1.1-2.7-.5-3.6-1.5-1.4-2.2-1.4-3.8v-2.4c0-1.5.4-2.8 1.4-3.8.9-1 2.1-1.5 3.6-1.5s2.7.4 3.6 1.1 1.3 1.8 1.3 3.2v.1h-2.4c0-.8-.2-1.4-.6-1.8s-1-.6-1.8-.6-1.3.3-1.8.9c-.4.6-.6 1.4-.6 2.3v2.5c0 1 .2 1.8.7 2.4.4.6 1.1.9 1.9.9s1.3-.2 1.7-.6.6-1 .6-1.8h2.1z"/><text font-family="'MyriadPro-Regular'" font-size="9.1323" transform="translate(76.6648 152.5774)">(Formarly SNR Sons College - Autonomous)</text></g></svg>